<?xml version="1.0" encoding="utf-8"?>
<!-- Generator: Adobe Illustrator 26.2.1, SVG Export Plug-In . SVG Version: 6.00 Build 0)  -->
<svg version="1.1" id="레이어_1" xmlns="http://www.w3.org/2000/svg" xmlns:xlink="http://www.w3.org/1999/xlink" x="0px"
	 y="0px" viewBox="0 0 324.53 56.7" style="enable-background:new 0 0 324.53 56.7;" xml:space="preserve">
<style type="text/css">
	.st0{fill:#FFFFFF;}
</style>
<g>
	<path class="st0" d="M21.81,24.86l-5.7-1.3c-1.52-0.39-2.72-0.62-3.61-1.1c-0.89-0.48-1.52-1.16-1.53-2.35
		c0-1.05,0.73-1.78,1.79-2.33c1.06-0.55,2.46-0.64,3.72-0.64c1.37,0,2.74,0.31,4.1,0.94c1.37,0.63,3.14,1.42,4.53,3.99l7.17-4.28
		c-1.32-2.89-3.37-5-6.16-6.33c-2.79-1.33-5.95-1.99-9.5-1.99c-2.13,0-4.12,0.25-5.97,0.76c-1.85,0.51-3.46,1.23-4.83,2.17
		c-1.37,0.94-2.44,2.09-3.23,3.43c-0.79,1.35-1.18,2.89-1.18,4.63c0,1.54,0.33,2.89,0.99,4.05c0.66,1.16,1.49,2.15,2.51,2.96
		c1.01,0.82,2.14,1.49,3.38,2.02c1.24,0.53,2.88,1.01,4.15,1.27l4.7,0.97c2.76,0.56,3.71,0.75,4.7,1.17
		c1.66,0.71,2.11,1.55,2.03,2.97c-0.05,0.87-0.65,1.73-1.94,2.47c-1.07,0.61-2.57,0.95-4.39,0.95c-1.77,0-3.97-0.51-5.41-1.4
		c-1.44-0.89-3.17-2.12-4.83-5.24L0,37.1c0.51,1.25,1.24,2.5,2.2,3.72c0.96,1.23,2.14,2.31,3.53,3.25c1.39,0.94,3.04,1.7,4.94,2.28
		c1.9,0.58,4.07,0.87,6.5,0.87c2.38,0,4.55-0.31,6.5-0.94c1.95-0.63,3.62-1.48,5.02-2.57c1.39-1.08,2.47-2.33,3.23-3.72
		c0.76-1.4,1.14-2.87,1.14-4.41c0-2.6-0.92-4.86-2.77-6.76C28.43,26.91,25.61,25.72,21.81,24.86z"/>
	<path class="st0" d="M107,14.79c-1.66-1.66-3.64-2.96-5.93-3.9c-2.29-0.94-4.81-1.41-7.56-1.41c-2.75,0-5.31,0.72-7.56,1.75
		c-1.18,0.54-1.77,0.99-2.36,1.5v-2.09h-8.88V56.7h9.47V44.3c0.55,0.48,1.21,0.84,1.77,1.17c1.81,1.07,4.81,1.75,7.56,1.75
		c3.61,0,5.27-0.47,7.56-1.41c2.29-0.94,4.27-2.24,5.93-3.9c1.66-1.66,2.96-3.65,3.9-5.97c0.94-2.31,1.41-4.84,1.41-7.59
		c0-2.75-0.47-5.28-1.41-7.59C109.96,18.44,108.66,16.45,107,14.79z M102.08,32.61c-0.51,1.25-1.19,2.31-2.06,3.18
		c-0.87,0.87-1.87,1.53-3,1.99c-1.13,0.46-2.3,0.69-3.51,0.69c-1.25,0-2.96-0.23-4.12-0.69c-1.16-0.46-2.19-1.12-3.1-1.99
		c-0.91-0.87-1.62-1.93-2.15-3.18c-0.53-1.25-0.79-2.67-0.79-4.26v-0.01c0-1.59,0.27-3.01,0.79-4.26c0.53-1.25,1.25-2.31,2.15-3.18
		c0.91-0.87,1.94-1.53,3.1-1.99c1.16-0.46,2.87-0.69,4.12-0.69c1.2,0,2.37,0.23,3.51,0.69c1.13,0.46,2.13,1.12,3,1.99
		c0.87,0.87,1.55,1.93,2.06,3.18c0.51,1.25,0.76,2.68,0.76,4.27C102.84,29.94,102.59,31.36,102.08,32.61z"/>
	<path class="st0" d="M241.28,14.79c-1.66-1.66-3.64-2.96-5.93-3.9c-2.29-0.94-4.81-1.41-7.56-1.41c-2.75,0-5.27,0.47-7.56,1.41
		c-2.29,0.94-4.27,2.24-5.93,3.9c-1.66,1.66-2.96,3.65-3.9,5.97c-0.94,2.31-1.41,4.84-1.41,7.59c0,2.75,0.47,5.28,1.41,7.59
		c0.94,2.31,2.24,4.3,3.9,5.97c1.66,1.66,3.64,2.96,5.93,3.9c2.29,0.94,4.81,1.41,7.56,1.41c2.75,0,5.27-0.47,7.56-1.41
		c2.29-0.94,4.27-2.24,5.93-3.9c1.66-1.66,2.96-3.65,3.9-5.97c0.94-2.31,1.41-4.84,1.41-7.59c0-2.75-0.47-5.28-1.41-7.59
		C244.24,18.44,242.94,16.45,241.28,14.79z M236.36,32.61c-0.51,1.25-1.19,2.31-2.06,3.18c-0.87,0.87-1.87,1.53-3,1.99
		c-1.13,0.46-2.3,0.69-3.51,0.69c-1.25,0-2.43-0.23-3.54-0.69c-1.11-0.46-2.1-1.12-2.96-1.99c-0.87-0.87-1.55-1.93-2.06-3.18
		c-0.51-1.25-0.76-2.68-0.76-4.27c0-1.59,0.25-3.01,0.76-4.27c0.51-1.25,1.19-2.31,2.06-3.18c0.87-0.87,1.86-1.53,2.96-1.99
		c1.11-0.46,2.29-0.69,3.54-0.69c1.2,0,2.37,0.23,3.51,0.69c1.13,0.46,2.13,1.12,3,1.99c0.87,0.87,1.55,1.93,2.06,3.18
		c0.51,1.25,0.76,2.68,0.76,4.27C237.12,29.94,236.87,31.36,236.36,32.61z"/>
	<path class="st0" d="M164.82,15.9v-5.27h-8.89v36.01h9.47V29.96c0-0.16,0.01-0.31,0.01-0.47c0.13-2.02,1.44-11.19,13.05-11.19v-8.1
		C168.48,10.2,164.82,15.9,164.82,15.9z"/>
	<path class="st0" d="M60.6,33.27c0,3.51-3.3,6.36-7.38,6.36c-4.07,0-7.38-2.85-7.38-6.36V10.63h-9.47v22.63
		c0,7.71,6.8,13.96,16.43,13.96c3.03,0,5.6-1.15,7.8-2.86v2.29h9.47V10.63H60.6V33.27z"/>
	<path class="st0" d="M267.18,9.47c-3.03,0-5.6,1.15-7.8,2.86V10h-9.47v36.64h9.47V23.43c0-3.51,3.3-6.36,7.38-6.36
		s7.38,2.85,7.38,6.36v23.21h9.47V23.43C283.61,15.72,276.81,9.47,267.18,9.47z"/>
	<path class="st0" d="M198.77,0h-9.48v10.2h-7.51v8.1h7.51v16.3c0,4.09,1.13,7.24,3.4,9.45c0.96,0.98,2.16,1.76,3.58,2.33
		c1.42,0.57,3.03,0.85,4.81,0.85h1.81l3.88,0v-8.97h-3.88c-1.25,0-2.22-0.4-2.89-1.19c-0.48-0.5-0.81-1.11-0.98-1.83
		c-0.17-0.72-0.25-1.5-0.25-2.35V18.3h8.01v-8.1h-8.01V0z"/>
	<path class="st0" d="M134.05,9.32c-10.65,0-19.31,8.66-19.31,19.31c0,10.65,8.66,19.31,19.31,19.31c4.09,0,7.99-1.26,11.3-3.65
		l-4.63-7.36c-1.79,1.29-4.45,2.17-6.67,2.17c-5.77,0-10.47-4.7-10.47-10.47c0-5.77,4.7-10.47,10.47-10.47
		c4.19,0,7.82,2.48,9.49,6.05h-9.49c-2.44,0-4.42,1.98-4.42,4.42c0,2.44,1.98,4.42,4.42,4.42h14.89c2.44,0,4.42-1.98,4.42-4.42
		C153.36,17.98,144.7,9.32,134.05,9.32z"/>
	<path class="st0" d="M302.27,30.32c0.93,2.26,3.52,3.33,5.78,2.39l13.76-5.7c2.26-0.93,3.33-3.52,2.39-5.78
		c-4.08-9.84-15.39-14.53-25.23-10.45c-9.84,4.08-14.53,15.39-10.45,25.23c4.08,9.84,15.39,14.53,25.23,10.45
		c3.78-1.56,6.9-4.23,9.04-7.7l-7.09-5.03c-1.16,1.88-3.28,3.71-5.33,4.55c-5.33,2.21-11.47-0.33-13.68-5.67
		c-2.21-5.33,0.33-11.47,5.67-13.68c3.87-1.6,8.17-0.7,11.08,1.96l-8.77,3.63C302.4,25.48,301.33,28.07,302.27,30.32z"/>
</g>
</svg>
