<?xml version="1.0" encoding="utf-8"?>
<!-- Generator: Adobe Illustrator 26.3.1, SVG Export Plug-In . SVG Version: 6.00 Build 0)  -->
<svg version="1.1" id="레이어_1" xmlns="http://www.w3.org/2000/svg" xmlns:xlink="http://www.w3.org/1999/xlink" x="0px"
	 y="0px" viewBox="0 0 566.93 78.41" style="enable-background:new 0 0 566.93 78.41;" xml:space="preserve">
<style type="text/css">
	.st0{fill:#FFFFFF;}
</style>
<g>
	<path class="st0" d="M42.95,70.19c0.27,0.73,0.71,1.03,1.42,1.2c7.84,1.93,15.67,3.89,23.5,5.83c1.6,0.4,3.2,0.78,4.87,1.18
		c0.5-4.96,0.97-9.75,1.47-14.72c-11.5-0.59-22.89-1.18-34.44-1.77C40.89,64.82,41.96,67.49,42.95,70.19"/>
	<path class="st0" d="M10.59,56.2c0.15,0.7,0.41,0.87,1.07,0.86c2.04-0.03,4.09-0.01,6.14-0.01h2.85c-0.24-3.47-0.46-6.8-0.69-10.13
		c-0.31-4.42-0.6-8.84-0.96-13.26c-0.09-1.12,0.31-1.55,1.42-1.54c0.08,0.25,0.17,0.5,0.24,0.76c1.84,7.8,3.69,15.6,5.51,23.4
		c0.15,0.63,0.42,0.79,1.03,0.79c2.9-0.03,5.8-0.01,8.7-0.02c0.23,0,0.45-0.05,0.72-0.08c0-0.81,0.01-1.55,0-2.3
		c-0.13-8.8-0.26-17.6-0.39-26.39c-0.02-1.34,0.09-1.44,1.55-1.44c0.38,2.3,0.76,4.61,1.15,6.92c1.28,7.47,2.56,14.94,3.81,22.42
		c0.11,0.67,0.31,0.91,1.01,0.9c3.1-0.04,6.21-0.01,9.31-0.02c0.23,0,0.45-0.04,0.69-0.07c0.85-12.05,1.7-24.04,2.55-36.07
		c0.49-0.16,0.96-0.3,1.5-0.48c0.9,12.26,1.79,24.41,2.68,36.54h14.35c1.68-16.75,3.35-33.42,5.02-50.17
		c-0.33-0.12-0.55-0.22-0.78-0.27c-8.9-2.17-17.81-4.34-26.73-6.48c-0.45-0.11-1.03-0.04-1.46,0.16
		C35.32,7.55,19.74,14.92,4.15,22.24C3.41,22.59,3.36,23,3.5,23.65C5.88,34.5,8.25,45.35,10.59,56.2"/>
	<path class="st0" d="M516.11,4.27c-18.23,7.55-26.92,28.53-19.37,46.76c7.55,18.22,28.53,26.92,46.76,19.37
		c6.99-2.9,12.79-7.83,16.76-14.26l-13.15-9.32c-2.15,3.48-6.09,6.87-9.88,8.44c-9.89,4.1-21.25-0.62-25.35-10.5
		c-4.09-9.88,0.62-21.25,10.5-25.35c7.18-2.97,15.15-1.3,20.54,3.62l-16.24,6.74c-4.18,1.73-6.17,6.52-4.43,10.7
		c1.73,4.18,6.52,6.16,10.7,4.44l25.49-10.56c4.18-1.73,6.17-6.52,4.44-10.7C555.31,5.4,534.34-3.28,516.11,4.27"/>
	<rect x="234.28" y="9.22" class="st0" width="12.23" height="58.43"/>
	<rect x="342.69" y="9.22" class="st0" width="12.23" height="58.43"/>
	<rect x="257.45" y="37.23" class="st0" width="74.36" height="2.41"/>
</g>
</svg>
