<?xml version="1.0" encoding="utf-8"?>
<!-- Generator: Adobe Illustrator 26.3.1, SVG Export Plug-In . SVG Version: 6.00 Build 0)  -->
<svg version="1.1" id="레이어_1" xmlns="http://www.w3.org/2000/svg" xmlns:xlink="http://www.w3.org/1999/xlink" x="0px"
	 y="0px" viewBox="0 0 87.81 21.74" style="enable-background:new 0 0 87.81 21.74;" xml:space="preserve">
<style type="text/css">
	.st0{fill:#2E3DF5;}
</style>
<g>
	<g>
		<polygon class="st0" points="6.12,8.47 4.88,11.93 7.4,11.93 6.15,8.47 		"/>
		<path class="st0" d="M15.02,1.37H3.92C1.77,1.37,0,3.13,0,5.29v11.1c0,2.16,1.77,3.92,3.92,3.92h11.1c2.16,0,3.92-1.77,3.92-3.92
			V5.29C18.94,3.13,17.18,1.37,15.02,1.37z M8.85,15.16H7.62v-2H4.65v2H3.42v-2.84l2.1-5.8h1.23l2.1,5.8V15.16z M15.52,7.75h-2.1
			v6.17h2.1v1.23h-3.33h-2.1v-1.23h2.1V7.75h-2.1V6.52h3.33h2.1V7.75z"/>
	</g>
	<g>
		<path class="st0" d="M29.34,3.77v0.62c0,1.03-0.82,1.85-1.85,1.85h-1.64V9.1h-1.03V1.92h1.03h1.64
			C28.52,1.92,29.34,2.75,29.34,3.77z M28.31,3.77c0-0.46-0.36-0.82-0.82-0.82h-1.64v2.26h1.64c0.46,0,0.82-0.36,0.82-0.82V3.77z"/>
		<path class="st0" d="M31.9,9.1c-1.03,0-1.85-0.81-1.85-1.84V5.72c0-1.03,0.82-1.85,1.85-1.85h0.82c1.03,0,1.85,0.82,1.85,1.85
			v1.55c0,1.03-0.82,1.84-1.85,1.84H31.9z M33.54,7.27V5.72c0-0.46-0.36-0.82-0.82-0.82H31.9c-0.46,0-0.82,0.36-0.82,0.82v1.55
			c0,0.46,0.36,0.8,0.82,0.81h0.82C33.18,8.08,33.54,7.73,33.54,7.27z"/>
		<path class="st0" d="M40.1,3.87v2.36L39.49,9.1h-0.82l-0.82-2.45L37.03,9.1h-0.82l-0.62-2.87V3.87h1.03v2.05l0.18,1.24l0.63-2.37
			h0.84l0.63,2.37l0.18-1.24V3.87H40.1z"/>
		<path class="st0" d="M45.64,5.82v0.79v0.11h-3.49v0.52c0,0.45,0.37,0.82,0.82,0.82h0.82c0.45,0,0.82-0.37,0.82-0.82v-0.1h1.03v0.1
			c0,1.02-0.82,1.86-1.85,1.86h-0.82c-1.02,0-1.85-0.84-1.85-1.86V5.72c0-1.03,0.83-1.85,1.85-1.85h0.82c0.99,0,1.79,0.77,1.85,1.74
			V5.82z M44.62,5.72c0-0.46-0.36-0.82-0.82-0.82h-0.82c-0.46,0-0.82,0.37-0.82,0.82V5.9h2.46V5.72z"/>
		<path class="st0" d="M51.18,5.72v0.41h-1.03V5.72c0-0.45-0.37-0.82-0.82-0.82h-0.1l-1.54,1.04V9.1h-1.03V3.87h1.03v0.82l1.22-0.82
			h0.42C50.35,3.87,51.18,4.69,51.18,5.72z"/>
		<path class="st0" d="M56.3,5.82v0.79v0.11h-3.49v0.52c0,0.45,0.37,0.82,0.82,0.82h0.82c0.45,0,0.82-0.37,0.82-0.82v-0.1h1.03v0.1
			c0,1.02-0.82,1.86-1.85,1.86h-0.82c-1.02,0-1.85-0.84-1.85-1.86V5.72c0-1.03,0.83-1.85,1.85-1.85h0.82c0.99,0,1.79,0.77,1.85,1.74
			V5.82z M55.28,5.72c0-0.46-0.36-0.82-0.82-0.82h-0.82c-0.46,0-0.82,0.37-0.82,0.82V5.9h2.46V5.72z"/>
		<path class="st0" d="M61.84,1.82V9.1h-1.03V8.53L59.96,9.1h-0.79c-1.02,0-1.85-0.83-1.85-1.85V5.72c0-1.03,0.83-1.85,1.85-1.85
			h0.79l0.85,0.57V1.82H61.84z M60.81,7.29v-1.6L59.65,4.9h-0.47c-0.45,0-0.82,0.37-0.82,0.82v1.54c0,0.45,0.37,0.82,0.82,0.82h0.47
			L60.81,7.29z"/>
		<path class="st0" d="M29.34,15.84v1.54c0,1.02-0.83,1.85-1.85,1.85H26.7l-0.85-0.57v0.57h-1.03v-7.28h1.03v2.62l0.85-0.57h0.79
			C28.51,13.99,29.34,14.81,29.34,15.84z M28.31,15.84c0-0.45-0.37-0.82-0.82-0.82h-0.47l-1.17,0.79v1.6l1.17,0.79h0.47
			c0.45,0,0.82-0.37,0.82-0.82V15.84z"/>
		<path class="st0" d="M34.26,13.99l-2.71,7.38h-1.1l0.94-2.56l-1.65-4.82h1.09l1.12,3.29l1.21-3.29H34.26z"/>
		<path class="st0" d="M39.62,16.9v0.41c0,0.48,0.4,0.88,0.88,0.88h0.69c0.52,0,0.89-0.33,0.89-0.78c0-1.41-3.38-1.72-3.38-3.67
			c0-1,0.79-1.7,1.91-1.7h0.48c1.06,0,1.92,0.85,1.92,1.91v0.31h-1.03v-0.31c0-0.49-0.4-0.88-0.89-0.88H40.6
			c-0.55,0-0.88,0.26-0.88,0.68c0,1.09,3.38,1.51,3.38,3.67c0,1.03-0.83,1.8-1.92,1.8H40.5c-1.06,0-1.91-0.85-1.91-1.91V16.9H39.62z
			"/>
		<path class="st0" d="M48.64,13.99v5.23h-1.03v-0.57l-0.85,0.57h-0.79c-1.02,0-1.85-0.82-1.85-1.85v-3.38h1.03v3.38
			c0,0.45,0.37,0.82,0.82,0.82h0.47l1.17-0.79v-3.41H48.64z"/>
		<path class="st0" d="M54.18,15.84v1.54c0,1.03-0.83,1.85-1.85,1.85h-0.79l-0.85-0.57v2.73h-1.03v-7.38h1.03v0.57l0.85-0.57h0.79
			C53.35,13.99,54.18,14.82,54.18,15.84z M53.15,15.84c0-0.45-0.37-0.82-0.82-0.82h-0.47l-1.17,0.79v1.6l1.17,0.79h0.47
			c0.45,0,0.82-0.37,0.82-0.82V15.84z"/>
		<path class="st0" d="M59.71,15.94v0.79v0.11h-3.49v0.52c0,0.45,0.37,0.82,0.82,0.82h0.82c0.45,0,0.82-0.37,0.82-0.82v-0.1h1.03
			v0.1c0,1.02-0.82,1.86-1.85,1.86h-0.82c-1.02,0-1.85-0.84-1.85-1.86v-1.53c0-1.03,0.83-1.85,1.85-1.85h0.82
			c0.99,0,1.79,0.77,1.85,1.74V15.94z M58.69,15.84c0-0.46-0.36-0.82-0.82-0.82h-0.82c-0.46,0-0.82,0.37-0.82,0.82v0.18h2.46V15.84z
			"/>
		<path class="st0" d="M65.25,15.84v0.41h-1.03v-0.41c0-0.45-0.37-0.82-0.82-0.82h-0.1l-1.54,1.04v3.17h-1.03v-5.23h1.03v0.82
			l1.22-0.82h0.42C64.42,13.99,65.25,14.81,65.25,15.84z"/>
		<path class="st0" d="M68.27,15.02v2.36c0,0.46,0.36,0.82,0.82,0.82h1.08v1.03h-1.08c-1.03,0-1.85-0.82-1.85-1.85v-2.36h-1.59
			v-1.03h1.59v-1.33h1.03v1.33h1.9v1.03H68.27z"/>
		<path class="st0" d="M73.04,19.22c-1.03,0-1.85-0.81-1.85-1.84v-1.55c0-1.03,0.82-1.85,1.85-1.85h0.82c1.03,0,1.85,0.82,1.85,1.85
			v1.55c0,1.03-0.82,1.84-1.85,1.84H73.04z M74.68,17.39v-1.55c0-0.46-0.36-0.82-0.82-0.82h-0.82c-0.46,0-0.82,0.36-0.82,0.82v1.55
			c0,0.46,0.36,0.8,0.82,0.81h0.82C74.32,18.2,74.68,17.85,74.68,17.39z"/>
		<path class="st0" d="M81.24,15.84v3.38h-1.03v-3.38c0-0.45-0.37-0.82-0.82-0.82h-0.47l-1.17,0.79v3.41h-1.03v-5.23h1.03v0.57
			l0.85-0.57h0.79C80.41,13.99,81.24,14.81,81.24,15.84z"/>
		<path class="st0" d="M86.78,15.94v0.79v0.11h-3.49v0.52c0,0.45,0.37,0.82,0.82,0.82h0.82c0.45,0,0.82-0.37,0.82-0.82v-0.1h1.03
			v0.1c0,1.02-0.82,1.86-1.85,1.86h-0.82c-1.02,0-1.85-0.84-1.85-1.86v-1.53c0-1.03,0.83-1.85,1.85-1.85h0.82
			c0.99,0,1.79,0.77,1.85,1.74V15.94z M85.75,15.84c0-0.46-0.36-0.82-0.82-0.82h-0.82c-0.46,0-0.82,0.37-0.82,0.82v0.18h2.46V15.84z
			"/>
	</g>
</g>
</svg>
