<?xml version="1.0" encoding="utf-8"?>
<!-- Generator: Adobe Illustrator 26.3.1, SVG Export Plug-In . SVG Version: 6.00 Build 0)  -->
<svg version="1.1" id="Layer_1" xmlns="http://www.w3.org/2000/svg" xmlns:xlink="http://www.w3.org/1999/xlink" x="0px" y="0px"
	 viewBox="0 0 179.68 236.45" style="enable-background:new 0 0 179.68 236.45;" xml:space="preserve">
<style type="text/css">
	.st0{fill:#FFFFFF;}
</style>
<rect x="26.68" y="38.45" width="9" height="9"/>
<rect x="35.68" y="38.45" width="9" height="9"/>
<rect x="35.68" y="11.45" width="9" height="9"/>
<rect x="26.68" y="2.45" width="9" height="9"/>
<rect x="44.68" y="20.45" width="9" height="9"/>
<rect x="62.68" y="11.45" width="9" height="9"/>
<rect x="62.68" y="2.45" width="9" height="9"/>
<rect x="71.68" y="38.45" width="9" height="9"/>
<rect x="71.68" y="47.45" class="st0" width="9" height="9"/>
<rect x="80.68" y="47.45" class="st0" width="9" height="9"/>
<rect x="80.68" y="56.45" class="st0" width="9" height="9"/>
<rect x="71.68" y="56.45" class="st0" width="9" height="9"/>
<rect x="71.68" y="65.45" class="st0" width="9" height="9"/>
<rect x="80.68" y="65.45" class="st0" width="9" height="9"/>
<rect x="80.68" y="74.45" class="st0" width="9" height="9"/>
<rect x="71.68" y="74.45" class="st0" width="9" height="9"/>
<rect x="71.68" y="83.45" class="st0" width="9" height="9"/>
<rect x="80.68" y="83.45" class="st0" width="9" height="9"/>
<rect x="80.68" y="92.45" class="st0" width="9" height="9"/>
<rect x="71.68" y="92.45" class="st0" width="9" height="9"/>
<rect x="71.68" y="101.45" class="st0" width="9" height="9"/>
<rect x="80.68" y="101.45" class="st0" width="9" height="9"/>
<rect x="80.68" y="92.45" class="st0" width="9" height="9"/>
<rect x="80.68" y="110.45" class="st0" width="9" height="9"/>
<rect x="71.68" y="110.45" class="st0" width="9" height="9"/>
<rect x="71.68" y="119.45" class="st0" width="9" height="9"/>
<rect x="80.68" y="119.45" class="st0" width="9" height="9"/>
<rect x="80.68" y="128.45" class="st0" width="9" height="9"/>
<rect x="71.68" y="128.45" class="st0" width="9" height="9"/>
<rect x="71.68" y="137.45" class="st0" width="9" height="9"/>
<rect x="71.68" y="146.45" class="st0" width="9" height="9"/>
<rect x="71.68" y="155.45" class="st0" width="9" height="9"/>
<rect x="62.68" y="155.45" class="st0" width="9" height="9"/>
<rect x="62.68" y="164.45" class="st0" width="9" height="9"/>
<rect x="53.68" y="164.45" class="st0" width="9" height="9"/>
<rect x="44.68" y="164.45" class="st0" width="9" height="9"/>
<rect x="35.68" y="164.45" class="st0" width="9" height="9"/>
<rect x="35.68" y="155.45" class="st0" width="9" height="9"/>
<rect x="26.68" y="155.45" class="st0" width="9" height="9"/>
<rect x="17.68" y="146.45" class="st0" width="9" height="9"/>
<rect x="8.68" y="146.45" class="st0" width="9" height="9"/>
<rect x="8.68" y="155.45" class="st0" width="9" height="9"/>
<rect x="17.68" y="155.45" class="st0" width="9" height="9"/>
<rect x="17.68" y="164.45" class="st0" width="9" height="9"/>
<rect x="26.68" y="164.45" class="st0" width="9" height="9"/>
<rect x="26.68" y="173.45" class="st0" width="9" height="9"/>
<rect x="35.68" y="173.45" class="st0" width="9" height="9"/>
<rect x="35.68" y="182.45" class="st0" width="9" height="9"/>
<rect x="44.68" y="182.45" class="st0" width="9" height="9"/>
<rect x="44.68" y="191.45" class="st0" width="9" height="9"/>
<rect x="53.68" y="191.45" class="st0" width="9" height="9"/>
<rect x="53.68" y="200.45" class="st0" width="9" height="9"/>
<rect x="62.68" y="200.45" class="st0" width="9" height="9"/>
<rect x="62.68" y="209.45" class="st0" width="9" height="9"/>
<rect x="71.68" y="209.45" class="st0" width="9" height="9"/>
<rect x="71.68" y="218.45" class="st0" width="9" height="9"/>
<rect x="80.68" y="218.45" class="st0" width="9" height="9"/>
<rect x="89.68" y="218.45" class="st0" width="9" height="9"/>
<rect x="98.68" y="218.45" class="st0" width="9" height="9"/>
<rect x="107.68" y="218.45" class="st0" width="9" height="9"/>
<rect x="116.68" y="218.45" class="st0" width="9" height="9"/>
<rect x="125.68" y="218.45" class="st0" width="9" height="9"/>
<rect x="134.68" y="218.45" class="st0" width="9" height="9"/>
<rect x="143.68" y="218.45" class="st0" width="9" height="9"/>
<rect x="143.68" y="209.45" class="st0" width="9" height="9"/>
<rect x="152.68" y="209.45" class="st0" width="9" height="9"/>
<rect x="152.68" y="200.45" class="st0" width="9" height="9"/>
<rect x="161.68" y="200.45" class="st0" width="9" height="9"/>
<rect x="161.68" y="191.45" class="st0" width="9" height="9"/>
<rect x="161.68" y="182.45" class="st0" width="9" height="9"/>
<rect x="161.68" y="173.45" class="st0" width="9" height="9"/>
<rect x="161.68" y="164.45" class="st0" width="9" height="9"/>
<rect x="161.68" y="155.45" class="st0" width="9" height="9"/>
<rect x="161.68" y="146.45" class="st0" width="9" height="9"/>
<rect x="161.68" y="137.45" class="st0" width="9" height="9"/>
<rect x="161.68" y="128.45" class="st0" width="9" height="9"/>
<rect x="152.68" y="128.45" class="st0" width="9" height="9"/>
<rect x="152.68" y="137.45" class="st0" width="9" height="9"/>
<rect x="143.68" y="137.45" class="st0" width="9" height="9"/>
<rect x="134.68" y="137.45" class="st0" width="9" height="9"/>
<rect x="134.68" y="128.45" class="st0" width="9" height="9"/>
<rect x="134.68" y="119.45" class="st0" width="9" height="9"/>
<rect x="125.68" y="119.45" class="st0" width="9" height="9"/>
<rect x="125.68" y="128.45" class="st0" width="9" height="9"/>
<rect x="125.68" y="137.45" class="st0" width="9" height="9"/>
<rect x="116.68" y="137.45" class="st0" width="9" height="9"/>
<rect x="107.68" y="137.45" class="st0" width="9" height="9"/>
<rect x="107.68" y="128.45" class="st0" width="9" height="9"/>
<rect x="107.68" y="119.45" class="st0" width="9" height="9"/>
<rect x="107.68" y="110.45" class="st0" width="9" height="9"/>
<rect x="98.68" y="110.45" class="st0" width="9" height="9"/>
<rect x="98.68" y="119.45" class="st0" width="9" height="9"/>
<rect x="98.68" y="128.45" class="st0" width="9" height="9"/>
<rect x="98.68" y="137.45" class="st0" width="9" height="9"/>
<rect x="89.68" y="137.45" class="st0" width="9" height="9"/>
<rect x="80.68" y="137.45" class="st0" width="9" height="9"/>
<rect x="80.68" y="146.45" class="st0" width="9" height="9"/>
<rect x="89.68" y="146.45" class="st0" width="9" height="9"/>
<rect x="98.68" y="146.45" class="st0" width="9" height="9"/>
<rect x="107.68" y="146.45" class="st0" width="9" height="9"/>
<rect x="116.68" y="146.45" class="st0" width="9" height="9"/>
<rect x="125.68" y="146.45" class="st0" width="9" height="9"/>
<rect x="134.68" y="146.45" class="st0" width="9" height="9"/>
<rect x="143.68" y="146.45" class="st0" width="9" height="9"/>
<rect x="152.68" y="146.45" class="st0" width="9" height="9"/>
<rect x="152.68" y="155.45" class="st0" width="9" height="9"/>
<rect x="152.68" y="164.45" class="st0" width="9" height="9"/>
<rect x="152.68" y="173.45" class="st0" width="9" height="9"/>
<rect x="152.68" y="182.45" class="st0" width="9" height="9"/>
<rect x="152.68" y="191.45" class="st0" width="9" height="9"/>
<rect x="143.68" y="191.45" class="st0" width="9" height="9"/>
<rect x="143.68" y="200.45" class="st0" width="9" height="9"/>
<rect x="134.68" y="200.45" class="st0" width="9" height="9"/>
<rect x="134.68" y="209.45" class="st0" width="9" height="9"/>
<rect x="125.68" y="209.45" class="st0" width="9" height="9"/>
<rect x="116.68" y="209.45" class="st0" width="9" height="9"/>
<rect x="107.68" y="209.45" class="st0" width="9" height="9"/>
<rect x="98.68" y="209.45" class="st0" width="9" height="9"/>
<rect x="89.68" y="209.45" class="st0" width="9" height="9"/>
<rect x="80.68" y="209.45" class="st0" width="9" height="9"/>
<rect x="80.68" y="200.45" class="st0" width="9" height="9"/>
<rect x="71.68" y="200.45" class="st0" width="9" height="9"/>
<rect x="71.68" y="191.45" class="st0" width="9" height="9"/>
<rect x="62.68" y="191.45" class="st0" width="9" height="9"/>
<rect x="62.68" y="182.45" class="st0" width="9" height="9"/>
<rect x="53.68" y="182.45" class="st0" width="9" height="9"/>
<rect x="53.68" y="173.45" class="st0" width="9" height="9"/>
<rect x="44.68" y="173.45" class="st0" width="9" height="9"/>
<rect x="62.68" y="173.45" class="st0" width="9" height="9"/>
<rect x="71.68" y="173.45" class="st0" width="9" height="9"/>
<rect x="71.68" y="164.45" class="st0" width="9" height="9"/>
<rect x="80.68" y="164.45" class="st0" width="9" height="9"/>
<rect x="80.68" y="155.45" class="st0" width="9" height="9"/>
<rect x="89.68" y="155.45" class="st0" width="9" height="9"/>
<rect x="98.68" y="155.45" class="st0" width="9" height="9"/>
<rect x="107.68" y="155.45" class="st0" width="9" height="9"/>
<rect x="116.68" y="155.45" class="st0" width="9" height="9"/>
<rect x="125.68" y="155.45" class="st0" width="9" height="9"/>
<rect x="134.68" y="155.45" class="st0" width="9" height="9"/>
<rect x="143.68" y="155.45" class="st0" width="9" height="9"/>
<rect x="143.68" y="164.45" class="st0" width="9" height="9"/>
<rect x="143.68" y="173.45" class="st0" width="9" height="9"/>
<rect x="143.68" y="182.45" class="st0" width="9" height="9"/>
<rect x="134.68" y="182.45" class="st0" width="9" height="9"/>
<rect x="134.68" y="191.45" class="st0" width="9" height="9"/>
<rect x="125.68" y="191.45" class="st0" width="9" height="9"/>
<rect x="125.68" y="200.45" class="st0" width="9" height="9"/>
<rect x="116.68" y="200.45" class="st0" width="9" height="9"/>
<rect x="107.68" y="200.45" class="st0" width="9" height="9"/>
<rect x="98.68" y="200.45" class="st0" width="9" height="9"/>
<rect x="89.68" y="200.45" class="st0" width="9" height="9"/>
<rect x="89.68" y="191.45" class="st0" width="9" height="9"/>
<rect x="80.68" y="191.45" class="st0" width="9" height="9"/>
<rect x="80.68" y="182.45" class="st0" width="9" height="9"/>
<rect x="71.68" y="182.45" class="st0" width="9" height="9"/>
<rect x="80.68" y="173.45" class="st0" width="9" height="9"/>
<rect x="89.68" y="173.45" class="st0" width="9" height="9"/>
<rect x="89.68" y="164.45" class="st0" width="9" height="9"/>
<rect x="98.68" y="164.45" class="st0" width="9" height="9"/>
<rect x="107.68" y="164.45" class="st0" width="9" height="9"/>
<rect x="116.68" y="164.45" class="st0" width="9" height="9"/>
<rect x="125.68" y="164.45" class="st0" width="9" height="9"/>
<rect x="134.68" y="164.45" class="st0" width="9" height="9"/>
<rect x="134.68" y="173.45" class="st0" width="9" height="9"/>
<rect x="125.68" y="173.45" class="st0" width="9" height="9"/>
<rect x="116.68" y="173.45" class="st0" width="9" height="9"/>
<rect x="107.68" y="173.45" class="st0" width="9" height="9"/>
<rect x="98.68" y="173.45" class="st0" width="9" height="9"/>
<rect x="98.68" y="182.45" class="st0" width="9" height="9"/>
<rect x="89.68" y="182.45" class="st0" width="9" height="9"/>
<rect x="98.68" y="191.45" class="st0" width="9" height="9"/>
<rect x="107.68" y="191.45" class="st0" width="9" height="9"/>
<rect x="107.68" y="182.45" class="st0" width="9" height="9"/>
<rect x="116.68" y="182.45" class="st0" width="9" height="9"/>
<rect x="125.68" y="182.45" class="st0" width="9" height="9"/>
<rect x="116.68" y="191.45" class="st0" width="9" height="9"/>
<rect x="80.68" y="38.45" width="9" height="9"/>
<rect x="62.68" y="47.45" width="9" height="9"/>
<rect x="62.68" y="56.45" width="9" height="9"/>
<rect x="62.68" y="65.45" width="9" height="9"/>
<rect x="62.68" y="74.45" width="9" height="9"/>
<rect x="62.68" y="83.45" width="9" height="9"/>
<rect x="62.68" y="92.45" width="9" height="9"/>
<rect x="62.68" y="101.45" width="9" height="9"/>
<rect x="62.68" y="110.45" width="9" height="9"/>
<rect x="62.68" y="119.45" width="9" height="9"/>
<rect x="62.68" y="128.45" width="9" height="9"/>
<rect x="62.68" y="137.45" width="9" height="9"/>
<rect x="62.68" y="146.45" width="9" height="9"/>
<rect x="53.68" y="155.45" width="9" height="9"/>
<rect x="44.68" y="155.45" width="9" height="9"/>
<rect x="35.68" y="146.45" width="9" height="9"/>
<rect x="26.68" y="146.45" width="9" height="9"/>
<rect x="17.68" y="137.45" width="9" height="9"/>
<rect x="8.68" y="137.45" width="9" height="9"/>
<rect x="-0.32" y="146.45" width="9" height="9"/>
<rect x="-0.32" y="155.45" width="9" height="9"/>
<rect x="8.68" y="164.45" width="9" height="9"/>
<rect x="17.68" y="173.45" width="9" height="9"/>
<rect x="26.68" y="182.45" width="9" height="9"/>
<rect x="35.68" y="191.45" width="9" height="9"/>
<rect x="44.68" y="200.45" width="9" height="9"/>
<rect x="53.68" y="209.45" width="9" height="9"/>
<rect x="62.68" y="218.45" width="9" height="9"/>
<rect x="71.68" y="227.45" width="9" height="9"/>
<rect x="80.68" y="227.45" width="9" height="9"/>
<rect x="89.68" y="227.45" width="9" height="9"/>
<rect x="98.68" y="227.45" width="9" height="9"/>
<rect x="107.68" y="227.45" width="9" height="9"/>
<rect x="116.68" y="227.45" width="9" height="9"/>
<rect x="125.68" y="227.45" width="9" height="9"/>
<rect x="134.68" y="227.45" width="9" height="9"/>
<rect x="143.68" y="227.45" width="9" height="9"/>
<rect x="152.68" y="218.45" width="9" height="9"/>
<rect x="161.68" y="209.45" width="9" height="9"/>
<rect x="170.68" y="200.45" width="9" height="9"/>
<rect x="170.68" y="191.45" width="9" height="9"/>
<rect x="170.68" y="182.45" width="9" height="9"/>
<rect x="170.68" y="173.45" width="9" height="9"/>
<rect x="170.68" y="164.45" width="9" height="9"/>
<rect x="170.68" y="155.45" width="9" height="9"/>
<rect x="170.68" y="146.45" width="9" height="9"/>
<rect x="170.68" y="137.45" width="9" height="9"/>
<rect x="170.68" y="128.45" width="9" height="9"/>
<rect x="161.68" y="119.45" width="9" height="9"/>
<rect x="152.68" y="119.45" width="9" height="9"/>
<rect x="143.68" y="119.45" width="9" height="9"/>
<rect x="143.68" y="128.45" width="9" height="9"/>
<rect x="134.68" y="110.45" width="9" height="9"/>
<rect x="125.68" y="110.45" width="9" height="9"/>
<rect x="116.68" y="110.45" width="9" height="9"/>
<rect x="116.68" y="119.45" width="9" height="9"/>
<rect x="116.68" y="128.45" width="9" height="9"/>
<rect x="107.68" y="101.45" width="9" height="9"/>
<rect x="98.68" y="101.45" width="9" height="9"/>
<rect x="89.68" y="128.45" width="9" height="9"/>
<rect x="89.68" y="119.45" width="9" height="9"/>
<rect x="89.68" y="110.45" width="9" height="9"/>
<rect x="89.68" y="101.45" width="9" height="9"/>
<rect x="89.68" y="92.45" width="9" height="9"/>
<rect x="89.68" y="83.45" width="9" height="9"/>
<rect x="89.68" y="74.45" width="9" height="9"/>
<rect x="89.68" y="65.45" width="9" height="9"/>
<rect x="89.68" y="56.45" width="9" height="9"/>
<rect x="89.68" y="47.45" width="9" height="9"/>
</svg>
