<?xml version="1.0" encoding="utf-8"?>
<!-- Generator: Adobe Illustrator 26.2.1, SVG Export Plug-In . SVG Version: 6.00 Build 0)  -->
<svg version="1.1" id="레이어_1" xmlns="http://www.w3.org/2000/svg" xmlns:xlink="http://www.w3.org/1999/xlink" x="0px"
	 y="0px" viewBox="0 0 262.5 255.3" style="enable-background:new 0 0 262.5 255.3;" xml:space="preserve">
<style type="text/css">
	.st0{clip-path:url(#SVGID_00000021082989912767872250000003889401748931775122_);}
	.st1{fill:#FFFFFF;}
	.st2{fill:#2E3DF5;}
</style>
<g>
	<g>
		<defs>
			<rect id="SVGID_1_" x="-0.14" y="0.15" width="262.5" height="255.1"/>
		</defs>
		<clipPath id="SVGID_00000093871213864663260480000015727952097426177689_">
			<use xlink:href="#SVGID_1_"  style="overflow:visible;"/>
		</clipPath>
		
			<g id="그룹_3811" transform="translate(-0.14 0.049)" style="clip-path:url(#SVGID_00000093871213864663260480000015727952097426177689_);">
			<path class="st1" d="M133.4,192.7c-53,0-96-43.1-96-96s43.1-96,96-96c53,0,96,43.1,96,96S186.3,192.7,133.4,192.7z M133.4,2.8
				c-51.7,0-93.8,42.1-93.8,93.8s42.1,93.8,93.8,93.8s93.9-42.1,93.9-93.8S185.1,2.8,133.4,2.8z"/>
			<path class="st1" d="M96.4,254.6c-53,0-96-43.1-96-96s43.1-96,96-96s96,43.1,96,96S149.3,254.6,96.4,254.6z M96.4,64.7
				c-51.7,0-93.8,42.1-93.8,93.8s42.1,93.8,93.8,93.8s93.8-42.1,93.8-93.8S148.1,64.7,96.4,64.7z"/>
			<path class="st1" d="M166.3,254.6c-53,0-96-43.1-96-96s43.1-96,96-96c53,0,96,43.1,96,96S219.3,254.6,166.3,254.6z M166.3,64.7
				c-51.7,0-93.8,42.1-93.8,93.8s42.1,93.8,93.8,93.8s93.8-42.1,93.8-93.8S218.1,64.7,166.3,64.7z"/>
			<path id="패스_5398" class="st2" d="M107.5,29.8l5.3,14.3h-3.3l-1.1-3.2h-5.3l-1.1,3.2h-3.2l5.4-14.3H107.5z M107.7,38.6
				l-1.8-5.2l0,0l-1.9,5.2H107.7z"/>
			<path id="패스_5399" class="st2" d="M124.5,43c-2.7,1.9-6.3,1.9-9,0c-1.1-0.9-1.6-2.4-1.6-4.3v-8.9h3.1v8.9
				c0,0.4,0,0.8,0.1,1.1c0.1,0.8,0.6,1.4,1.3,1.7c0.5,0.2,1,0.3,1.5,0.3c0.8,0.1,1.7-0.2,2.3-0.7c0.5-0.7,0.7-1.5,0.6-2.3v-8.9h3.1
				v8.9C126.2,40.6,125.6,42.1,124.5,43"/>
			<path id="패스_5400" class="st2" d="M135,29.8c0.9,0,1.7,0.1,2.6,0.4c0.8,0.3,1.5,0.7,2.1,1.3c0.6,0.6,1.1,1.4,1.4,2.2
				c0.3,1,0.5,2,0.5,3.1c0,1-0.1,1.9-0.4,2.9c-0.2,0.8-0.7,1.6-1.2,2.3c-0.6,0.6-1.2,1.2-2,1.5c-0.9,0.4-1.9,0.6-2.9,0.5h-6.2V29.8
				H135z M134.8,41.5c0.4,0,0.9-0.1,1.3-0.2c0.4-0.2,0.8-0.4,1.1-0.7c0.4-0.4,0.6-0.8,0.8-1.3c0.2-0.6,0.3-1.3,0.3-2
				s-0.1-1.3-0.2-1.9c-0.1-0.5-0.4-1-0.7-1.5c-0.3-0.4-0.8-0.8-1.3-1c-0.6-0.2-1.3-0.3-1.9-0.3H132v9L134.8,41.5z"/>
			<rect id="사각형_2468" x="143.7" y="29.8" class="st2" width="3.1" height="14.3"/>
			<path id="패스_5401" class="st2" d="M149.4,34.1c0.3-0.9,0.8-1.7,1.4-2.4c0.6-0.7,1.4-1.2,2.2-1.6c1.9-0.8,4-0.8,5.9,0
				c0.8,0.4,1.6,0.9,2.2,1.6c0.6,0.7,1.1,1.5,1.4,2.4c0.3,1,0.5,2,0.5,3s-0.2,2-0.5,2.9s-0.8,1.7-1.4,2.3c-0.6,0.7-1.4,1.2-2.2,1.6
				c-1.9,0.8-4,0.8-5.9,0c-0.8-0.4-1.6-0.9-2.2-1.6c-0.6-0.7-1.1-1.5-1.4-2.3c-0.3-0.9-0.5-1.9-0.5-2.9
				C148.9,36,149.1,35,149.4,34.1 M152.3,38.8c0.1,0.5,0.4,1.1,0.7,1.5c0.3,0.5,0.7,0.8,1.2,1.1c1.1,0.5,2.5,0.5,3.6,0
				c0.5-0.3,0.9-0.6,1.2-1.1s0.5-1,0.7-1.5c0.1-0.6,0.2-1.2,0.2-1.7c0-0.6-0.1-1.2-0.2-1.8c-0.1-0.6-0.4-1.1-0.7-1.6
				s-0.7-0.8-1.2-1.1c-1.1-0.5-2.5-0.5-3.6,0c-0.5,0.3-0.9,0.6-1.2,1.1s-0.5,1-0.7,1.6c-0.1,0.6-0.2,1.2-0.2,1.8
				C152.1,37.6,152.2,38.2,152.3,38.8"/>
			<path id="패스_5402" class="st2" d="M30.8,139.8c0.3,0.5,0.5,1.1,0.6,1.7c0.1,0.5,0.1,1.1-0.1,1.6c-0.1,0.5-0.4,1-0.7,1.4
				c-0.3,0.4-0.7,0.8-1.2,1c-0.6,0.4-1.4,0.6-2.2,0.6c-0.8,0-1.5-0.3-2.1-0.8l0,0c0.1,0.3,0.1,0.7,0.1,1.1c-0.1,0.3-0.2,0.6-0.4,0.9
				c-0.2,0.3-0.4,0.6-0.7,0.8c-0.3,0.2-0.6,0.5-0.9,0.7c-0.2,0.1-0.4,0.3-0.7,0.4c-0.3,0.2-0.5,0.3-0.8,0.5s-0.5,0.4-0.7,0.6
				c-0.2,0.2-0.4,0.4-0.5,0.7l-1.6-2.7c0.4-0.4,0.8-0.8,1.2-1.1c0.5-0.3,1-0.7,1.5-1.1c0.5-0.3,0.9-0.8,1.1-1.4
				c0.1-0.6,0-1.2-0.4-1.7l-1.6-2.7l-4.8,2.8l-1.6-2.7l12.4-7.1L30.8,139.8z M24.7,142.1c0.3,0.5,0.7,0.9,1.2,1.2
				c0.6,0.1,1.2,0,1.6-0.3c0.5-0.2,0.9-0.7,1-1.2c0.1-0.6-0.1-1.2-0.4-1.6l-1.7-3l-3.5,2L24.7,142.1z"/>
			<path id="패스_5403" class="st2" d="M39.5,154.9l-2.3,1.3l-3.8-6.5l-2.6,1.5l3.5,6l-2.1,1.2l-3.5-6l-3,1.7l3.8,6.7l-2.3,1.3
				l-5.4-9.4l12.4-7.1L39.5,154.9z"/>
			<path id="패스_5404" class="st2" d="M32.5,164.3c-0.2,0.3-0.3,0.6-0.4,1c0,0.4,0,0.7,0.1,1.1c0.1,0.4,0.3,0.8,0.5,1.1
				s0.3,0.5,0.5,0.7s0.4,0.5,0.7,0.6c0.2,0.2,0.5,0.3,0.8,0.3s0.6,0,0.9-0.2c0.3-0.2,0.5-0.5,0.6-0.8c0.1-0.4,0.1-0.8,0-1.1
				c-0.1-0.5-0.2-0.9-0.3-1.4c-0.2-0.5-0.3-1-0.4-1.5c-0.2-0.5-0.3-1.1-0.4-1.6c-0.1-0.5-0.1-1,0-1.6c0.1-0.5,0.2-1,0.5-1.4
				c0.3-0.5,0.8-0.9,1.3-1.2c0.6-0.3,1.2-0.5,1.9-0.5c0.6,0,1.2,0.1,1.8,0.4c0.6,0.3,1.1,0.6,1.6,1.1s0.9,1,1.2,1.5
				c0.4,0.6,0.7,1.3,0.9,2c0.2,0.6,0.3,1.3,0.2,2c-0.1,0.6-0.3,1.3-0.6,1.8c-0.4,0.6-0.9,1.1-1.6,1.5l-1.5-2.6
				c0.3-0.2,0.6-0.5,0.8-0.8s0.3-0.6,0.3-0.9c0-0.3,0-0.6-0.1-0.9c-0.1-0.3-0.3-0.7-0.4-1c-0.1-0.2-0.3-0.4-0.4-0.6
				c-0.2-0.2-0.4-0.3-0.6-0.5c-0.2-0.1-0.4-0.2-0.7-0.2s-0.5,0.1-0.8,0.2c-0.2,0.1-0.4,0.3-0.5,0.5s-0.1,0.5-0.1,0.8
				c0.1,0.5,0.1,0.9,0.3,1.3c0.2,0.6,0.3,1.3,0.6,2.2c0.1,0.3,0.2,0.6,0.3,1.1s0.2,1,0.1,1.6c0,0.6-0.2,1.1-0.5,1.7
				c-0.3,0.6-0.8,1.1-1.5,1.4c-0.5,0.3-1.1,0.5-1.8,0.6c-0.6,0.1-1.2,0-1.8-0.3c-0.7-0.3-1.2-0.6-1.8-1.1c-0.6-0.6-1.2-1.3-1.6-2.1
				c-0.4-0.7-0.7-1.4-0.9-2.1c-0.2-0.7-0.3-1.4-0.2-2.2c0.1-0.7,0.3-1.4,0.7-2c0.4-0.7,1-1.2,1.7-1.6l1.5,2.6
				C33.1,163.7,32.8,164,32.5,164.3"/>
			<path id="패스_5405" class="st2" d="M52.5,177.3l-2.3,1.3l-3.8-6.5l-2.6,1.5l3.5,6l-2.1,1.2l-3.5-6l-3,1.7l3.9,6.7l-2.3,1.3
				l-5.4-9.4l12.4-7.1L52.5,177.3z"/>
			<path id="패스_5406" class="st2" d="M57.2,185.5l-9.7,11.8l-1.6-2.8l2.2-2.5l-2.7-4.6l-3.3,0.6l-1.6-2.7l15.1-2.5L57.2,185.5z
				 M49.7,190l3.6-4.2l0,0l-5.5,1L49.7,190z"/>
			<path id="패스_5407" class="st2" d="M64.3,197.8c0.3,0.5,0.5,1.1,0.6,1.7c0.1,0.5,0.1,1.1-0.1,1.6c-0.1,0.5-0.4,1-0.7,1.4
				c-0.3,0.4-0.7,0.8-1.2,1c-0.6,0.4-1.4,0.6-2.2,0.6s-1.5-0.3-2.1-0.8l0,0c0.1,0.3,0.1,0.7,0.1,1.1c-0.1,0.3-0.2,0.6-0.4,0.9
				c-0.2,0.3-0.4,0.6-0.7,0.8s-0.6,0.5-0.9,0.7c-0.2,0.1-0.4,0.3-0.7,0.4c-0.3,0.2-0.5,0.3-0.8,0.5s-0.5,0.4-0.7,0.6
				c-0.2,0.2-0.4,0.4-0.5,0.6l-1.6-2.7c0.4-0.4,0.8-0.8,1.2-1.1c0.5-0.3,1-0.7,1.5-1.1c0.5-0.3,0.9-0.8,1.1-1.4
				c0.1-0.6,0-1.2-0.4-1.7l-1.6-2.7l-4.8,2.8l-1.6-2.7l12.4-7.1L64.3,197.8z M58.2,200.1c0.3,0.5,0.7,0.9,1.2,1.2
				c0.6,0.1,1.2,0,1.6-0.3c0.5-0.2,0.9-0.7,1-1.2c0.1-0.6-0.1-1.2-0.4-1.6l-1.7-3l-3.5,2L58.2,200.1z"/>
			<path id="패스_5408" class="st2" d="M69,213.5c0.2-0.3,0.3-0.7,0.3-1c0.1-0.4,0.1-0.7,0-1.1c-0.1-0.4-0.2-0.7-0.4-1.1
				c-0.3-0.6-0.7-1-1.3-1.4c-0.5-0.3-1-0.5-1.6-0.5s-1.1,0-1.7,0.2s-1.2,0.4-1.7,0.7s-1,0.6-1.4,1.1c-0.4,0.4-0.7,0.8-1,1.3
				c-0.2,0.5-0.4,1-0.3,1.6c0,0.6,0.2,1.2,0.5,1.8c0.4,0.8,1.1,1.3,1.9,1.5c0.8,0.2,1.7,0.1,2.5-0.3l1.5,2.6
				c-0.8,0.4-1.6,0.6-2.4,0.7c-0.8,0.1-1.5,0-2.3-0.2c-0.7-0.2-1.4-0.6-2-1.1s-1.2-1.2-1.6-1.9c-0.5-0.9-0.9-1.8-1-2.8
				c-0.1-0.9,0-1.8,0.3-2.7s0.7-1.7,1.3-2.4c0.6-0.8,1.4-1.4,2.3-1.9c0.9-0.5,1.8-0.9,2.8-1.1c0.9-0.2,1.8-0.2,2.8,0
				c0.9,0.2,1.7,0.6,2.5,1.1c1.4,1.1,2.4,2.6,2.8,4.4c0.2,0.7,0.2,1.4,0.1,2.1c-0.1,0.7-0.3,1.4-0.7,2c-0.4,0.7-0.9,1.2-1.6,1.7
				l-1.5-2.6C68.6,214.1,68.8,213.8,69,213.5"/>
			<path id="패스_5409" class="st2" d="M76.7,219.2l-4.7,2.7l2.9,5l4.7-2.7l1.6,2.7L68.8,234l-1.6-2.7l5.3-3.1l-2.9-5l-5.3,3.1
				l-1.6-2.7l12.4-7.1L76.7,219.2z"/>
			<path id="패스_5410" class="st2" d="M190.7,225.9c-0.4,0-0.7,0.1-1,0.2c-0.7,0.3-1.3,0.8-1.7,1.4c-0.3,0.5-0.5,1.1-0.5,1.8
				c0,0.6,0.1,1.1,0.4,1.6c0.3,0.5,0.6,1,1,1.4s0.9,0.8,1.5,1.1c0.5,0.3,1.1,0.5,1.6,0.7s1.1,0.2,1.7,0.2c0.5,0,1.1-0.2,1.5-0.5
				c0.5-0.3,1-0.8,1.3-1.4c0.5-0.7,0.6-1.6,0.4-2.4c-0.3-0.8-0.8-1.5-1.5-2l1.5-2.6c0.7,0.5,1.3,1.1,1.8,1.7
				c0.4,0.6,0.8,1.3,0.9,2.1c0.2,0.7,0.2,1.5,0,2.2c-0.2,0.8-0.4,1.6-0.9,2.3c-0.5,0.9-1.2,1.7-2,2.3c-0.7,0.5-1.6,0.9-2.5,1.1
				c-0.9,0.2-1.8,0.2-2.7,0c-1-0.2-1.9-0.5-2.8-1c-0.9-0.5-1.7-1.1-2.3-1.9c-0.6-0.7-1.1-1.5-1.4-2.4c-0.3-0.9-0.4-1.8-0.3-2.7
				c0.2-1.8,1.1-3.4,2.4-4.6c0.5-0.5,1.1-0.9,1.8-1.1c0.7-0.3,1.4-0.4,2.1-0.4c0.8,0,1.5,0.2,2.2,0.5l-1.5,2.6
				C191.4,226,191.1,225.9,190.7,225.9"/>
			<path id="패스_5411" class="st2" d="M193.8,221.4c-0.6-0.7-1.1-1.5-1.4-2.4c-0.3-0.9-0.4-1.8-0.3-2.7c0.3-2,1.3-3.9,3-5.1
				c0.7-0.5,1.6-0.9,2.5-1.1c0.9-0.2,1.8-0.2,2.8,0s1.9,0.6,2.8,1.1c0.9,0.5,1.6,1.1,2.3,1.9c0.6,0.7,1.1,1.5,1.3,2.4
				c0.3,0.9,0.4,1.8,0.3,2.7c-0.3,2-1.3,3.9-3,5.1c-0.7,0.5-1.6,0.9-2.5,1.1c-0.9,0.2-1.8,0.2-2.7,0c-1-0.2-1.9-0.5-2.8-1
				C195.3,222.8,194.5,222.1,193.8,221.4 M199.3,221.3c0.5,0.2,1.1,0.2,1.7,0.2c0.5,0,1.1-0.2,1.5-0.5c1-0.7,1.7-1.9,1.8-3.1
				c0-0.5-0.1-1.1-0.3-1.6s-0.6-1-1-1.3c-0.4-0.4-0.9-0.8-1.4-1.1s-1.1-0.6-1.7-0.7c-0.5-0.2-1.1-0.2-1.7-0.2
				c-0.5,0-1.1,0.2-1.6,0.5c-1,0.7-1.7,1.9-1.8,3.1c0,0.6,0.1,1.1,0.4,1.6c0.3,0.5,0.6,1,1,1.4s0.9,0.8,1.5,1.1
				C198.2,220.9,198.8,221.1,199.3,221.3"/>
			<path id="패스_5412" class="st2" d="M199.6,203l11.3-0.4l0,0l-8.3-4.8l1.5-2.5l12.4,7.1l-1.6,2.7l-11.2,0.4l0,0l8.3,4.8
				l-1.5,2.5l-12.4-7.1L199.6,203z"/>
			<path id="패스_5413" class="st2" d="M207.1,195.1l-2.3-1.3l5.8-10.1l2.3,1.3l-2.1,3.7l10.1,5.8l-1.6,2.7l-10.1-5.8L207.1,195.1
				z"/>
			<path id="패스_5414" class="st2" d="M216.9,173l2.3,1.3l-3.8,6.5l2.6,1.5l3.5-6l2.1,1.2l-3.5,6l3,1.7l3.8-6.7l2.3,1.3l-5.4,9.4
				l-12.4-7.1L216.9,173z"/>
			<path id="패스_5415" class="st2" d="M219.6,168.4l11.3-0.4l0,0l-8.3-4.8l1.5-2.5l12.4,7.1l-1.6,2.7l-11.2,0.4l0,0l8.3,4.8
				l-1.5,2.5l-12.4-7.1L219.6,168.4z"/>
			<path id="패스_5416" class="st2" d="M227.1,160.5l-2.3-1.3l5.8-10.1l2.3,1.3l-2.1,3.7l10.1,5.8l-1.6,2.7l-10.1-5.8L227.1,160.5
				z"/>
			<path id="패스_5417" class="st2" d="M242,151c0.4,0,0.7,0,1-0.2s0.6-0.4,0.9-0.6c0.3-0.3,0.5-0.6,0.7-1
				c0.1-0.3,0.3-0.5,0.4-0.8c0.1-0.3,0.2-0.6,0.2-0.9c0-0.3,0-0.6-0.1-0.9c-0.1-0.3-0.3-0.5-0.6-0.7s-0.7-0.2-1-0.1
				c-0.4,0.1-0.7,0.3-1,0.5c-0.4,0.3-0.7,0.6-1,1c-0.4,0.4-0.7,0.8-1.1,1.1c-0.4,0.4-0.8,0.8-1.2,1.1s-0.8,0.6-1.3,0.8
				s-1,0.3-1.5,0.3c-0.6,0-1.1-0.2-1.6-0.5c-0.6-0.3-1.1-0.8-1.4-1.4c-0.3-0.5-0.5-1.1-0.6-1.7c-0.1-0.6,0-1.3,0.2-1.9
				c0.2-0.6,0.4-1.2,0.7-1.8c0.4-0.6,0.8-1.2,1.3-1.7s1-0.9,1.6-1.2s1.2-0.4,1.9-0.4s1.4,0.3,2.1,0.6l-1.5,2.6
				c-0.3-0.2-0.7-0.3-1.1-0.3c-0.3,0-0.6,0.1-0.9,0.2c-0.3,0.1-0.5,0.3-0.7,0.6s-0.4,0.6-0.6,0.9c-0.1,0.2-0.2,0.5-0.3,0.7
				s-0.1,0.5-0.1,0.7s0.1,0.5,0.2,0.7c0.1,0.2,0.3,0.4,0.6,0.6c0.2,0.1,0.4,0.2,0.7,0.2s0.5-0.1,0.7-0.3c0.4-0.3,0.7-0.6,1-0.9
				c0.4-0.4,0.9-0.9,1.6-1.6c0.2-0.2,0.4-0.5,0.8-0.8c0.4-0.4,0.8-0.7,1.3-0.9c0.5-0.3,1.1-0.4,1.7-0.4c0.7,0,1.4,0.2,2,0.5
				c0.5,0.3,1,0.7,1.4,1.2s0.6,1.1,0.7,1.7c0.1,0.7,0.1,1.4-0.1,2.1c-0.2,0.8-0.5,1.6-1,2.4c-0.4,0.7-0.9,1.3-1.4,1.8
				s-1.1,0.9-1.8,1.2c-0.6,0.3-1.3,0.4-2,0.4c-0.8-0.1-1.5-0.3-2.2-0.7l1.5-2.6C241.2,150.8,241.6,150.9,242,151"/>
			<path id="패스_5418" class="st2" d="M127.7,121.1l11.2,30h-6.8l-2.3-6.7h-11.2l-2.4,6.7h-6.6l11.3-30
				C120.9,121.1,127.7,121.1,127.7,121.1z M128.1,139.5l-3.8-11h-0.1l-3.9,11H128.1z"/>
			<rect id="사각형_2469" x="141.5" y="121.1" class="st2" width="6.6" height="30"/>
		</g>
	</g>
</g>
</svg>
