<?xml version="1.0" encoding="utf-8"?>
<!-- Generator: Adobe Illustrator 26.2.1, SVG Export Plug-In . SVG Version: 6.00 Build 0)  -->
<svg version="1.1" id="레이어_1" xmlns="http://www.w3.org/2000/svg" xmlns:xlink="http://www.w3.org/1999/xlink" x="0px"
	 y="0px" viewBox="0 0 566.93 566.93" style="enable-background:new 0 0 566.93 566.93;" xml:space="preserve">
<style type="text/css">
	.st0{fill:#FFFFFF;}
</style>
<g>
	<path class="st0" d="M539.79,54.29H27.14C12.15,54.29,0,42.13,0,27.14S12.15,0,27.14,0h512.64c14.99,0,27.14,12.15,27.14,27.14
		S554.78,54.29,539.79,54.29z"/>
	<path class="st0" d="M539.79,310.61H27.14C12.15,310.61,0,298.45,0,283.46c0-14.99,12.15-27.14,27.14-27.14h512.64
		c14.99,0,27.14,12.15,27.14,27.14C566.93,298.45,554.78,310.61,539.79,310.61z"/>
	<path class="st0" d="M539.79,566.92H27.14C12.15,566.92,0,554.76,0,539.77s12.15-27.14,27.14-27.14h512.64
		c14.99,0,27.14,12.15,27.14,27.14S554.78,566.92,539.79,566.92z"/>
</g>
</svg>
