<?xml version="1.0" encoding="utf-8"?>
<!-- Generator: Adobe Illustrator 26.3.1, SVG Export Plug-In . SVG Version: 6.00 Build 0)  -->
<svg version="1.1" id="레이어_1" xmlns="http://www.w3.org/2000/svg" xmlns:xlink="http://www.w3.org/1999/xlink" x="0px"
	 y="0px" viewBox="0 0 140 27.52" style="enable-background:new 0 0 140 27.52;" xml:space="preserve">
<style type="text/css">
	.st0{fill:#FFFFFF;}
</style>
<g>
	<g id="그룹_3752_00000102502391924515811520000008162224901484195968_" transform="translate(0 0)">
		<path id="패스_5359_00000042730291877382903620000012999822085224204699_" class="st0" d="M2.39,13.76
			C2.39,8.07,2.26,3.37,0,0.64h10.49C7,4.16,9.76,10.22,13.3,13.76l6.98,7.08v-7.08c0-6.14-4.2-10.73-7.66-13.12h11.75
			c-2.26,2.73-2.39,7.43-2.39,13.12s0.13,10.39,2.39,13.12H13.85c3.52-3.52,0.73-9.58-2.78-13.12L4.09,6.68v7.08
			c0,6.14,4.2,10.73,7.66,13.12H0C2.26,24.15,2.39,19.45,2.39,13.76"/>
		<path id="패스_5360_00000132061472208979601620000016596590349551232154_" class="st0" d="M35.4,0.64
			c-3.14,3.64-4.83,8.31-4.75,13.12c0,4.54,3.86,7.53,8.45,7.53c4.62,0,8.26-3.04,8.26-7.53c0.09-4.81-1.6-9.48-4.75-13.12h8.95
			c-2.31,2.73-2.44,7.43-2.44,13.12v3.91c0,5.04-1.55,9.73-9.89,9.73c-8.76,0-10.31-4.7-10.31-9.73v-3.91
			c0-5.69-0.13-10.39-2.47-13.12H35.4z"/>
		<path id="패스_5361_00000077318127641627510250000010364969492645310653_" class="st0" d="M52.34,0.64h12.78
			c-4.83,3.25-5.56,20.12,2.15,20.12S74.25,3.9,69.42,0.64H82.2c-3.93,4.07-11.7,21.75-9.92,26.24H62.26
			C64.04,22.39,56.28,4.71,52.34,0.64"/>
		<path id="패스_5362_00000062179266839075304250000009084421958698033037_" class="st0" d="M80.89,13.76
			c0-7.53,4.62-13.64,13.17-13.64s13.14,6.11,13.14,13.64S102.61,27.4,94.06,27.4S80.89,21.29,80.89,13.76 M94.06,21.16
			c8.03,0,11.49-3.25,11.49-7.45s-3.46-7.35-11.49-7.35s-11.49,3.15-11.49,7.35S86.03,21.16,94.06,21.16"/>
		<path id="패스_5363_00000006675652527061279810000008469429112234691006_" class="st0" d="M115.34,1.56h0.04l1.36,4.51h1.14
			l1.38-4.51h0.04v4.51h1.12V0.12h-1.75l-1.36,4.48h-0.02l-1.33-4.48h-1.72v5.95h1.1L115.34,1.56z"/>
		<path id="패스_5364_00000044152925893823174760000016811110559585287575_" class="st0" d="M110.3,6.07h1.21V1.13h1.94V0.12
			h-5.09v1.01h1.94V6.07z"/>
	</g>
</g>
</svg>
