<?xml version="1.0" encoding="utf-8"?>
<!-- Generator: Adobe Illustrator 26.3.1, SVG Export Plug-In . SVG Version: 6.00 Build 0)  -->
<svg version="1.1" id="레이어_1" xmlns="http://www.w3.org/2000/svg" xmlns:xlink="http://www.w3.org/1999/xlink" x="0px"
	 y="0px" viewBox="0 0 140 27.52" style="enable-background:new 0 0 140 27.52;" xml:space="preserve">
<style type="text/css">
	.st0{fill:#FFFFFF;}
</style>
<g id="그룹_3763_00000114761224523853390720000010038052378012569763_" transform="translate(0 0)">
	<g>
		<g id="그룹_3762_00000044891442258742879800000001590389793656074398_" transform="translate(0 0)">
			<path id="패스_5385_00000097475856576165467020000005285079019492439198_" class="st0" d="M15.09,1.07
				c8.28,0,13.82,3.94,14.19,9.48h-8.88c-0.33-1.04-1.7-2.47-5.24-2.47c-4.57,0-6.47,2.47-6.47,5.97s1.57,6.04,7.51,6.04
				c2.2,0.04,4.39-0.4,6.41-1.27v-1.43h-7.48v-5.01h14.15V23.1c-4.14,2.33-8.84,3.48-13.59,3.34C6.41,26.44,0,22.2,0,13.72
				C0,5.28,6.41,1.07,15.09,1.07"/>
			<path id="패스_5386_00000065778604900204560180000013505248101273852313_" class="st0" d="M32.62,13.72
				c0-8.11,5.74-12.65,15.69-12.65C58.22,1.07,64,5.64,64,13.72c0,8.11-5.78,12.72-15.69,12.72C38.36,26.44,32.62,21.87,32.62,13.72
				 M55.32,13.72c0-3.1-1.53-5.64-7.01-5.64s-7.01,2.5-7.01,5.64c0,3.17,1.57,5.71,7.01,5.71S55.32,16.86,55.32,13.72"/>
			<path id="패스_5387_00000031179831336887096160000010875015834936317316_" class="st0" d="M86.5,1.74h10.35L83.92,17.76v8.01
				h-8.34v-8.01L62.66,1.74h10.35l6.74,9.01L86.5,1.74z"/>
			<path id="패스_5388_00000043425535519320244890000015349312488019112837_" class="st0" d="M95.51,13.72
				c0-8.11,5.74-12.65,15.69-12.65c9.91,0,15.69,4.57,15.69,12.65c0,8.11-5.78,12.72-15.69,12.72
				C101.26,26.44,95.51,21.87,95.51,13.72 M118.21,13.72c0-3.1-1.54-5.64-7.01-5.64s-7.01,2.5-7.01,5.64c0,3.17,1.57,5.71,7.01,5.71
				S118.21,16.86,118.21,13.72"/>
			<path id="패스_5389_00000054960379016814941060000008780237373850153141_" class="st0" d="M134.6,2.84h0.05l1.44,4.78h1.21
				l1.46-4.78h0.05v4.78H140V1.31h-1.85l-1.44,4.76h-0.02l-1.42-4.76h-1.83v6.31h1.17V2.84z"/>
			<path id="패스_5390_00000078740188550120765500000003726192663973671819_" class="st0" d="M129.26,7.62h1.28V2.38h2.06V1.31
				h-5.39v1.08h2.06L129.26,7.62z"/>
		</g>
	</g>
</g>
</svg>
