<?xml version="1.0" encoding="utf-8"?>
<!-- Generator: Adobe Illustrator 26.3.1, SVG Export Plug-In . SVG Version: 6.00 Build 0)  -->
<svg version="1.1" id="레이어_1" xmlns="http://www.w3.org/2000/svg" xmlns:xlink="http://www.w3.org/1999/xlink" x="0px"
	 y="0px" viewBox="0 0 140 27.52" style="enable-background:new 0 0 140 27.52;" xml:space="preserve">
<style type="text/css">
	.st0{fill:#FFFFFF;}
</style>
<g>
	<g>
		<g>
			<path class="st0" d="M17.5,26.46h-1.28c-2.29,0-4.3-0.2-5.97-0.6c-1.69-0.4-3.15-0.93-4.35-1.6c-1.22-0.67-2.22-1.45-2.99-2.31
				c-0.76-0.86-1.36-1.76-1.79-2.67c-0.43-0.92-0.73-1.83-0.88-2.73C0.08,15.67,0,14.86,0,14.14v-0.9c0-0.74,0.07-1.56,0.21-2.43
				c0.14-0.9,0.42-1.81,0.83-2.7c0.41-0.9,1-1.79,1.75-2.63C3.55,4.6,4.55,3.84,5.78,3.19c1.2-0.64,2.68-1.16,4.38-1.54
				c1.7-0.38,3.74-0.58,6.06-0.58h1.28c2.28,0,4.29,0.17,5.97,0.5c1.69,0.33,3.15,0.78,4.34,1.33C29,3.45,30,4.1,30.77,4.81
				c0.76,0.71,1.37,1.43,1.81,2.16c0.44,0.73,0.75,1.46,0.91,2.15c0.16,0.68,0.24,1.27,0.24,1.78v1.03h-8.9l-0.14-0.5
				c-0.01-0.04-0.07-0.21-0.32-0.76c-0.15-0.32-0.49-0.68-0.98-1.05c-0.53-0.4-1.31-0.76-2.32-1.08c-1.02-0.32-2.44-0.48-4.21-0.48
				c-1.67,0-3.04,0.17-4.07,0.5c-1.01,0.32-1.8,0.74-2.36,1.25c-0.54,0.49-0.92,1.04-1.12,1.64c-0.21,0.64-0.32,1.3-0.32,1.95v0.37
				c0,0.61,0.12,1.26,0.35,1.93c0.22,0.64,0.63,1.24,1.2,1.79c0.58,0.56,1.4,1.03,2.42,1.4c1.03,0.38,2.36,0.57,3.96,0.57
				c1.79,0,3.22-0.18,4.24-0.53c1.02-0.35,1.79-0.74,2.31-1.17c0.48-0.41,0.81-0.8,0.94-1.13c0.17-0.43,0.28-0.7,0.32-0.82
				l0.16-0.46h8.88v1.03c0,0.53-0.08,1.16-0.25,1.87c-0.17,0.73-0.49,1.48-0.94,2.24c-0.45,0.75-1.07,1.49-1.84,2.21
				c-0.78,0.72-1.79,1.37-3,1.93c-1.2,0.55-2.65,1-4.33,1.34C21.72,26.28,19.74,26.46,17.5,26.46z M16.22,2.43
				c-2.23,0-4.16,0.18-5.76,0.54C8.87,3.34,7.51,3.81,6.42,4.4c-1.08,0.57-1.95,1.24-2.6,1.97c-0.66,0.75-1.17,1.52-1.53,2.3
				c-0.36,0.78-0.6,1.57-0.73,2.35c-0.13,0.8-0.19,1.55-0.19,2.22v0.9c0,0.64,0.07,1.38,0.21,2.18c0.13,0.78,0.39,1.58,0.77,2.38
				c0.38,0.8,0.91,1.59,1.58,2.35c0.66,0.75,1.55,1.43,2.63,2.02c1.09,0.6,2.44,1.09,4.01,1.46c1.57,0.37,3.48,0.56,5.66,0.56h1.28
				c2.15,0,4.04-0.16,5.62-0.49c1.57-0.32,2.93-0.74,4.03-1.25c1.08-0.5,1.97-1.07,2.64-1.69c0.68-0.63,1.21-1.27,1.59-1.91
				c0.38-0.63,0.64-1.25,0.78-1.85c0.11-0.46,0.17-0.87,0.2-1.22h-6.54c-0.05,0.12-0.1,0.26-0.17,0.43
				c-0.22,0.56-0.66,1.11-1.33,1.68c-0.65,0.55-1.55,1.01-2.75,1.42c-1.17,0.4-2.74,0.6-4.68,0.6c-1.76,0-3.25-0.22-4.43-0.65
				c-1.2-0.44-2.17-1-2.89-1.69c-0.73-0.7-1.25-1.48-1.55-2.33c-0.28-0.82-0.43-1.62-0.43-2.38v-0.37c0-0.8,0.13-1.6,0.39-2.38
				c0.28-0.83,0.78-1.58,1.5-2.23c0.7-0.63,1.66-1.15,2.85-1.53c1.17-0.37,2.67-0.56,4.48-0.56c1.91,0,3.47,0.18,4.62,0.55
				c1.18,0.37,2.07,0.79,2.73,1.29c0.69,0.52,1.15,1.03,1.39,1.57c0.09,0.19,0.15,0.34,0.21,0.46h6.54
				c-0.03-0.33-0.09-0.71-0.19-1.13c-0.13-0.55-0.38-1.14-0.75-1.75c-0.37-0.62-0.9-1.24-1.56-1.86c-0.66-0.61-1.54-1.18-2.61-1.67
				c-1.09-0.5-2.44-0.92-4.03-1.23c-1.59-0.31-3.51-0.47-5.7-0.47H16.22z"/>
			<path class="st0" d="M55.3,26.05h-9.89L32.63,1.47h9.78l8.11,16.18l7.6-16.18h9.07L55.3,26.05z M46.24,24.68h8.21L65.02,2.84
				h-6.03l-8.43,17.95L41.57,2.84h-6.69L46.24,24.68z"/>
			<path class="st0" d="M83.54,26.46h-1.28c-2.29,0-4.3-0.2-5.97-0.6c-1.69-0.4-3.15-0.93-4.35-1.6c-1.22-0.67-2.22-1.45-2.99-2.31
				c-0.76-0.86-1.36-1.76-1.79-2.67c-0.43-0.92-0.73-1.83-0.88-2.73c-0.15-0.88-0.23-1.69-0.23-2.41v-0.9
				c0-0.74,0.07-1.56,0.21-2.43c0.14-0.9,0.42-1.81,0.83-2.7c0.41-0.9,1-1.79,1.75-2.63c0.76-0.86,1.76-1.62,2.98-2.27
				c1.2-0.64,2.68-1.16,4.38-1.54c1.7-0.38,3.74-0.58,6.06-0.58h1.28c2.28,0,4.29,0.17,5.97,0.5c1.69,0.33,3.15,0.78,4.34,1.33
				c1.2,0.56,2.2,1.2,2.97,1.91c0.76,0.71,1.37,1.43,1.81,2.16c0.44,0.73,0.75,1.46,0.91,2.15c0.16,0.68,0.24,1.27,0.24,1.78v1.03
				h-8.9l-0.14-0.5c-0.01-0.04-0.07-0.21-0.32-0.76c-0.15-0.32-0.49-0.68-0.98-1.05c-0.53-0.4-1.31-0.76-2.32-1.08
				c-1.02-0.32-2.44-0.48-4.21-0.48c-1.67,0-3.04,0.17-4.07,0.5c-1.01,0.32-1.8,0.74-2.36,1.25c-0.54,0.49-0.92,1.04-1.12,1.64
				c-0.21,0.64-0.32,1.3-0.32,1.95v0.37c0,0.61,0.12,1.26,0.35,1.93c0.22,0.64,0.63,1.24,1.2,1.79c0.58,0.56,1.4,1.03,2.42,1.4
				c1.03,0.38,2.36,0.57,3.96,0.57c1.79,0,3.22-0.18,4.24-0.53c1.02-0.35,1.79-0.74,2.31-1.17c0.48-0.41,0.81-0.8,0.94-1.13
				c0.17-0.43,0.28-0.7,0.32-0.82l0.16-0.46h8.88v1.03c0,0.53-0.08,1.16-0.25,1.87c-0.17,0.73-0.49,1.48-0.94,2.24
				c-0.45,0.75-1.07,1.49-1.84,2.21c-0.78,0.72-1.79,1.37-3,1.93c-1.2,0.55-2.65,1-4.33,1.34C87.77,26.28,85.78,26.46,83.54,26.46z
				 M82.27,2.43c-2.23,0-4.16,0.18-5.76,0.54c-1.59,0.36-2.95,0.84-4.04,1.42c-1.08,0.57-1.95,1.24-2.6,1.97
				c-0.66,0.75-1.17,1.52-1.53,2.3c-0.36,0.78-0.6,1.57-0.73,2.35c-0.13,0.8-0.19,1.55-0.19,2.22v0.9c0,0.64,0.07,1.38,0.21,2.18
				c0.13,0.78,0.39,1.58,0.77,2.38c0.38,0.8,0.91,1.59,1.58,2.35c0.66,0.75,1.55,1.43,2.63,2.02c1.09,0.6,2.44,1.09,4.01,1.46
				c1.57,0.37,3.48,0.56,5.66,0.56h1.28c2.15,0,4.04-0.16,5.62-0.49c1.57-0.32,2.93-0.74,4.03-1.25c1.08-0.5,1.97-1.07,2.64-1.69
				c0.68-0.63,1.21-1.27,1.59-1.91c0.38-0.63,0.64-1.25,0.78-1.85c0.11-0.46,0.17-0.87,0.2-1.22h-6.54
				c-0.05,0.12-0.1,0.26-0.17,0.43c-0.22,0.56-0.66,1.11-1.33,1.68c-0.65,0.55-1.55,1.01-2.75,1.42c-1.17,0.4-2.74,0.6-4.68,0.6
				c-1.76,0-3.25-0.22-4.43-0.65c-1.2-0.44-2.17-1-2.89-1.69c-0.73-0.7-1.25-1.48-1.55-2.33c-0.28-0.82-0.43-1.62-0.43-2.38v-0.37
				c0-0.8,0.13-1.6,0.39-2.38c0.28-0.83,0.78-1.58,1.5-2.23c0.7-0.63,1.66-1.15,2.85-1.53c1.17-0.37,2.67-0.56,4.48-0.56
				c1.91,0,3.47,0.18,4.62,0.55c1.18,0.37,2.07,0.79,2.73,1.29c0.69,0.52,1.15,1.03,1.39,1.57c0.09,0.19,0.15,0.34,0.21,0.46h6.54
				c-0.03-0.33-0.09-0.71-0.19-1.13c-0.13-0.55-0.38-1.14-0.75-1.75c-0.37-0.62-0.9-1.24-1.56-1.86c-0.66-0.61-1.54-1.18-2.61-1.67
				c-1.09-0.5-2.44-0.92-4.03-1.23c-1.59-0.31-3.51-0.47-5.7-0.47H82.27z"/>
		</g>
	</g>
	<g>
		<polygon class="st0" points="107.39,2.43 107.43,2.43 108.71,6.68 109.79,6.68 111.09,2.43 111.13,2.43 111.13,6.68 112.19,6.68 
			112.19,1.06 110.54,1.06 109.26,5.29 109.24,5.29 107.98,1.06 106.35,1.06 106.35,6.68 107.39,6.68 		"/>
		<polygon class="st0" points="102.63,6.68 103.77,6.68 103.77,2.02 105.6,2.02 105.6,1.06 100.8,1.06 100.8,2.02 102.63,2.02 		"/>
	</g>
</g>
</svg>
