<?xml version="1.0" encoding="utf-8"?>
<!-- Generator: Adobe Illustrator 26.3.1, SVG Export Plug-In . SVG Version: 6.00 Build 0)  -->
<svg version="1.1" id="레이어_1" xmlns="http://www.w3.org/2000/svg" xmlns:xlink="http://www.w3.org/1999/xlink" x="0px"
	 y="0px" viewBox="0 0 140 27.52" style="enable-background:new 0 0 140 27.52;" xml:space="preserve">
<style type="text/css">
	.st0{fill:#FFFFFF;}
</style>
<g id="그룹_3783" transform="translate(0 0)">
	<g>
		<g id="그룹_3782" transform="translate(0 0)">
			<path id="패스_5393" class="st0" d="M13.71,6.85c-1.09-0.02-1.99,0.84-2.01,1.92s0.84,1.99,1.92,2.01c0.03,0,0.06,0,0.09,0
				h17.35c2.81,0,5.41,1.48,6.84,3.9c0.74,1.24,1.14,2.65,1.15,4.09c0,4.4-3.56,7.98-7.97,7.98c-0.01,0-0.01,0-0.02,0H0v-5.57h16.27
				c1.79,0,3.25-1.46,3.25-3.25s-1.46-3.25-3.25-3.25H8.28c-3.84,0.02-6.97-3.08-6.98-6.93c0-0.01,0-0.01,0-0.02
				c0-3.85,3.12-6.98,6.97-6.98c0,0,0.01,0,0.01,0h32.06v6.09H13.71z"/>
			<path id="패스_5394" class="st0" d="M41.34,0.76h20.8l5.83,19.5l5.87-19.5h6.5l-7.84,26H49.14L41.34,0.76z"/>
			<path id="패스_5395" class="st0" d="M94.08,6.85c-1.09-0.02-1.99,0.84-2.01,1.92c-0.02,1.09,0.84,1.99,1.92,2.01
				c0.03,0,0.06,0,0.09,0h17.35c2.81,0,5.41,1.48,6.83,3.9c0.74,1.24,1.13,2.65,1.15,4.09c0.01,4.4-3.56,7.98-7.96,7.98
				c-0.01,0-0.01,0-0.02,0H80.37v-5.57h16.27c1.79,0,3.25-1.46,3.25-3.25s-1.46-3.25-3.25-3.25h-7.99
				c-3.84,0.02-6.97-3.08-6.98-6.92c0-0.01,0-0.02,0-0.03c-0.01-3.85,3.11-6.98,6.96-6.98c0.01,0,0.01,0,0.02,0h32.06v6.09H94.08z"
				/>
			<path id="패스_5396" class="st0" d="M133.14,2.42h0.05l1.56,5.19h1.32l1.59-5.19h0.05v5.19H139V0.76h-2.01l-1.56,5.16h-0.03
				l-1.54-5.16h-1.99v6.85h1.26V2.42z"/>
			<path id="패스_5397" class="st0" d="M127.33,7.61h1.39V1.93h2.23V0.76h-5.86v1.17h2.23V7.61z"/>
		</g>
	</g>
</g>
</svg>
